<svg viewBox="0 0 33.85 35.1" xmlns="http://www.w3.org/2000/svg"><path d="m19.4 35.1h-19.4v-2.25c1.57-.17 2.53-.44 2.9-.83a3.87 3.87 0 0 0 .55-2.52v-23.9a3.87 3.87 0 0 0 -.55-2.52c-.37-.39-1.33-.66-2.9-.83v-2.25h19.05q6 0 9.18 2.23a7.45 7.45 0 0 1 3.22 6.57 6.68 6.68 0 0 1 -2.67 5.6 12.93 12.93 0 0 1 -6.73 2.45 15.53 15.53 0 0 1 8.53 2.42 7.24 7.24 0 0 1 3.27 6.28q0 4.9-3.6 7.22t-10.85 2.33zm-4.35-32.6h-.65v13.05h.7q6.11 0 6.1-6.7a6.36 6.36 0 0 0 -1.62-4.77 6.22 6.22 0 0 0 -4.53-1.58zm.95 16h-1.6v10.7a3.92 3.92 0 0 0 .68 2.7 3.47 3.47 0 0 0 2.52.7h.4a4.78 4.78 0 0 0 3.88-1.8 8.4 8.4 0 0 0 1.47-5.4q-.05-6.9-7.35-6.9z" opacity=".24"/></svg>