<svg viewBox="0 0 31.2 35.1" xmlns="http://www.w3.org/2000/svg"><path d="m0 35.1v-2.25c1.57-.17 2.53-.44 2.9-.83a3.87 3.87 0 0 0 .55-2.52v-23.9a3.87 3.87 0 0 0 -.55-2.52c-.37-.39-1.33-.66-2.9-.83v-2.25h29.3l.25 10h-2.1q-2.14-4.54-3.72-6t-5-1.45h-4.33v13h4.15a2.6 2.6 0 0 0 2.35-1 9 9 0 0 0 1-3.67h2.3v12.3h-2.35a9 9 0 0 0 -1-3.67 2.62 2.62 0 0 0 -2.35-1h-4.1v10.74a3.21 3.21 0 0 0 .9 2.65 4.83 4.83 0 0 0 2.95.7h1.1a15 15 0 0 0 2-.12 4 4 0 0 0 1.68-.71c.54-.38 1-.69 1.3-.94a7.91 7.91 0 0 0 1.32-1.78c.57-.93 1-1.67 1.3-2.2s.87-1.57 1.7-3.1h2.5l-1.6 11.35z" opacity=".24"/></svg>