<svg viewBox="0 0 29.2 35.1" xmlns="http://www.w3.org/2000/svg"><path d="m14.4 18.85v10.65a2.62 2.62 0 0 0 1.2 2.5 11.25 11.25 0 0 0 4.55.83v2.27h-20.15v-2.25c1.57-.17 2.53-.44 2.9-.83a3.87 3.87 0 0 0 .55-2.52v-23.9a3.87 3.87 0 0 0 -.55-2.52c-.37-.39-1.33-.66-2.9-.83v-2.25h29l.25 10.35h-2c-.73-1.35-1.25-2.42-1.63-3.05a18.92 18.92 0 0 0 -1.37-2.12 5.66 5.66 0 0 0 -1.57-1.6 8 8 0 0 0 -1.8-.75 8.67 8.67 0 0 0 -2.53-.33h-4v13.35h3.8a2.64 2.64 0 0 0 2.35-1 9.13 9.13 0 0 0 .95-3.68h2.35v12.33h-2.3a9.07 9.07 0 0 0 -.95-3.67 2.62 2.62 0 0 0 -2.35-1z" opacity=".24"/></svg>