<svg viewBox="0 0 40.4 35.1" xmlns="http://www.w3.org/2000/svg"><path d="m14.4 5.6v10.1h11.6v-10.1a3.87 3.87 0 0 0 -.55-2.52c-.37-.39-1.33-.66-2.9-.83v-2.25h17.85v2.25c-1.57.17-2.53.44-2.9.83a3.87 3.87 0 0 0 -.5 2.52v23.9a3.87 3.87 0 0 0 .5 2.5c.37.39 1.33.66 2.9.83v2.27h-17.85v-2.25c1.57-.17 2.53-.44 2.9-.83a3.87 3.87 0 0 0 .55-2.52v-10.4h-11.6v10.4a3.87 3.87 0 0 0 .6 2.5c.37.39 1.33.66 2.9.83v2.27h-17.9v-2.25c1.57-.17 2.53-.44 2.9-.83a3.87 3.87 0 0 0 .55-2.52v-23.9a3.87 3.87 0 0 0 -.55-2.52c-.37-.39-1.33-.66-2.9-.83v-2.25h17.85v2.25c-1.57.17-2.53.44-2.9.83a3.87 3.87 0 0 0 -.55 2.52z" opacity=".24"/></svg>