<svg viewBox="0 0 38.3 35.1" xmlns="http://www.w3.org/2000/svg"><path d="m14.4 5.6v23.9a3.87 3.87 0 0 0 .6 2.5c.37.39 1.33.66 2.9.83v2.27h-17.9v-2.25c1.57-.17 2.53-.44 2.9-.83a3.87 3.87 0 0 0 .55-2.52v-23.9a3.87 3.87 0 0 0 -.55-2.52c-.37-.39-1.33-.66-2.9-.83v-2.25h17.85v2.25c-1.57.17-2.53.44-2.9.83a3.87 3.87 0 0 0 -.55 2.52zm9.6 7.55 10.2 16.55a9.93 9.93 0 0 0 1.8 2.23 4.39 4.39 0 0 0 2.3.92v2.25h-12.65a24.19 24.19 0 0 1 -4.6-6.1l-6.25-10.9 11.5-12a3.94 3.94 0 0 0 1.45-2.4c0-.87-1.12-1.35-3.35-1.45v-2.25h12.2v2.25a8.3 8.3 0 0 0 -2.42.43 4.64 4.64 0 0 0 -1.73 1.32z" opacity=".24"/></svg>