<svg viewBox="0 0 50.05 35.1" xmlns="http://www.w3.org/2000/svg"><path d="m34.7 28.4-2.35-18.2-8.65 24.9h-4.4l-8.85-24.9-2.45 18.2a10 10 0 0 0 -.1 1.25 2.66 2.66 0 0 0 .93 2.4 9.36 9.36 0 0 0 3.92.8v2.25h-12.75v-2.25a6.15 6.15 0 0 0 3.12-.75 3.08 3.08 0 0 0 1.13-2.3l3.2-23.9a3.63 3.63 0 0 0 -.87-2.78 5.74 5.74 0 0 0 -3.38-.87v-2.25h15.1a13 13 0 0 0 .8 3.3l6.15 17.85 5.95-17.9a17.06 17.06 0 0 0 .85-3.25h14.8v2.25a5.68 5.68 0 0 0 -3.37.87 3.59 3.59 0 0 0 -.88 2.78l3.2 23.9a3.29 3.29 0 0 0 1.12 2.35 6.45 6.45 0 0 0 3.13.7v2.25h-20.05v-2.25a8.67 8.67 0 0 0 3.82-.8 2.6 2.6 0 0 0 1-2.4 10 10 0 0 0 -.12-1.25z" opacity=".24"/></svg>