<svg viewBox="0 0 32.7 35.1" xmlns="http://www.w3.org/2000/svg"><path d="m14.4 21.75v7.75a2.62 2.62 0 0 0 1.2 2.5 11.25 11.25 0 0 0 4.55.83v2.27h-20.15v-2.25c1.57-.17 2.53-.44 2.9-.83a3.87 3.87 0 0 0 .55-2.52v-23.9a3.87 3.87 0 0 0 -.55-2.52c-.37-.39-1.33-.66-2.9-.83v-2.25h18.2q7.15 0 10.8 2.9a9.36 9.36 0 0 1 3.67 7.75 9.73 9.73 0 0 1 -3.67 8.25q-3.75 2.85-11.3 2.85zm0-19.25v16.4h.65a6.36 6.36 0 0 0 5.18-2.2 9.23 9.23 0 0 0 1.82-6 8.64 8.64 0 0 0 -1.93-6 6.48 6.48 0 0 0 -5.07-2.2z" opacity=".24"/></svg>