<svg viewBox="0 0 35.4 44.95" xmlns="http://www.w3.org/2000/svg"><path d="m16 38.7-2.2-2.85a15.25 15.25 0 0 1 -10.2-5.77 18.16 18.16 0 0 1 -3.6-11.33q0-8.55 5.05-13.65t13.15-5.1q8.15 0 12.68 5a17.71 17.71 0 0 1 4.52 12.35 19.4 19.4 0 0 1 -3.65 12 16.48 16.48 0 0 1 -9.85 6.25l4.45 3a18.82 18.82 0 0 0 3.4 2 8.75 8.75 0 0 0 3.25.5v.95a9.17 9.17 0 0 1 -6.85 2.95q-5.35 0-10.15-6.3zm2-5.2a3.84 3.84 0 0 0 2.9-1.27 8.48 8.48 0 0 0 1.85-3.5 27.94 27.94 0 0 0 .92-4.65 45.53 45.53 0 0 0 .28-5.28q0-16.2-6.45-16.2a3.81 3.81 0 0 0 -2.9 1.28 8.42 8.42 0 0 0 -1.85 3.5 28.66 28.66 0 0 0 -.98 4.62 48 48 0 0 0 -.27 5.28q0 16.22 6.5 16.22z" opacity=".24"/></svg>