<svg viewBox="0 0 37.6 35.1" xmlns="http://www.w3.org/2000/svg"><path d="m14.4 20.6v8.9a3.87 3.87 0 0 0 .6 2.5c.37.39 1.33.66 2.9.83v2.27h-17.9v-2.25c1.57-.17 2.53-.44 2.9-.83a3.87 3.87 0 0 0 .55-2.52v-23.9a3.87 3.87 0 0 0 -.55-2.52c-.37-.39-1.33-.66-2.9-.83v-2.25h19.45q6.15 0 9.9 2.7a8.58 8.58 0 0 1 3.75 7.35 8.05 8.05 0 0 1 -2 5.63 12.38 12.38 0 0 1 -5.1 3.32l6.65 9.8a17.55 17.55 0 0 0 2.45 3.2 4.18 4.18 0 0 0 2.5.87v2.23h-12.35a19.43 19.43 0 0 1 -4.2-5.5l-5.15-9zm1-18h-1v15.3h1.1a6.3 6.3 0 0 0 5-2 8.43 8.43 0 0 0 1.8-5.75 7.8 7.8 0 0 0 -1.8-5.5 6.53 6.53 0 0 0 -5.05-2z" opacity=".24"/></svg>