<svg viewBox="0 0 26.8 36.1" xmlns="http://www.w3.org/2000/svg"><path d="m12.65 36.1a24.44 24.44 0 0 1 -6.88-1 16.27 16.27 0 0 1 -5.17-2.35l-.6-8.75h3a14.51 14.51 0 0 0 3.53 6.88 8.26 8.26 0 0 0 6.17 2.62 6.66 6.66 0 0 0 4-1.12 3.87 3.87 0 0 0 1.5-3.28 4.15 4.15 0 0 0 -1.68-3.48 17.45 17.45 0 0 0 -5.77-2.37c-3.57-1-6.23-2.37-8-4.23a10.12 10.12 0 0 1 -2.6-7.27 10.69 10.69 0 0 1 3.7-8.57 14.06 14.06 0 0 1 9.5-3.18q7 0 11 3v7.65h-2.45q-2.1-8.1-8.55-8.1a5.18 5.18 0 0 0 -3.55 1.18 4 4 0 0 0 -1.35 3.17 4.12 4.12 0 0 0 1.6 3.48 17.44 17.44 0 0 0 5.55 2.32 20.42 20.42 0 0 1 8.4 4.15q2.82 2.59 2.82 7.7 0 5.74-3.95 8.65a16.81 16.81 0 0 1 -10.22 2.9z" opacity=".24"/></svg>