<svg viewBox="0 0 50.9 35.25" xmlns="http://www.w3.org/2000/svg"><path d="m32.8 35.25-6.65-19.25-7.15 19.25h-4l-12.1-31.15c-.4-1-1.37-1.58-2.9-1.85v-2.25h17.25v2.25c-1.53.17-2.3.8-2.3 1.9a10.06 10.06 0 0 0 .75 2.9l5.4 14.35 3.55-9.65-2.6-7.65a2.92 2.92 0 0 0 -2.45-1.85v-2.25h17.25v2.25a4.88 4.88 0 0 0 -2.52.55 1.79 1.79 0 0 0 -.73 1.6 13.65 13.65 0 0 0 .7 3.3l4.3 13.45 4.65-13.65a11.5 11.5 0 0 0 .65-2.9c0-1.43-1.07-2.22-3.2-2.35v-2.25h10.2v2.25c-1.6.3-2.57.92-2.9 1.85l-11.1 31.15z" opacity=".24"/></svg>