<svg viewBox="0 0 37.65 35.1" xmlns="http://www.w3.org/2000/svg"><path d="m21.1 29.1-5.45-8-6.9 8.7a2.26 2.26 0 0 0 -.6 1.35c0 1 1.33 1.6 4 1.7v2.25h-12.15v-2.25a5.06 5.06 0 0 0 3.35-1.6l10.45-12.8-10-14.6a4.34 4.34 0 0 0 -2.8-1.6v-2.25h18.2v2.25a4.12 4.12 0 0 0 -1.9.33 1.2 1.2 0 0 0 -.6 1.17 4.88 4.88 0 0 0 1.1 2.25l3.85 5.75 5-6.45a2.51 2.51 0 0 0 .6-1.45c0-1-1-1.5-3-1.6v-2.25h11v2.25a5.06 5.06 0 0 0 -3.35 1.6l-8.45 10.55 11.05 16.35a4.71 4.71 0 0 0 3.15 2.1v2.25h-18.95v-2.25a10.9 10.9 0 0 0 2.8-.37 1.09 1.09 0 0 0 .7-1.13 5.26 5.26 0 0 0 -1.1-2.25z" opacity=".24"/></svg>