<svg xmlns="http://www.w3.org/2000/svg" width="261" height="261" viewBox="0 0 261 261">
  <path d="M94.68,339.6 C118.44,339.6 141,333.48 162.36,321.24 C166.92,325.56 172.8,330.48 180,336 L180,336 L263.52,336 L263.52,319.8 C261.84,319.8 260.28,319.68 258.84,319.44 C257.4,319.2 255.96,318.78 254.52,318.18 C253.08,317.58 251.88,317.04 250.92,316.56 C249.96,316.08 248.76,315.18 247.32,313.86 C245.88,312.54 244.74,311.58 243.9,310.98 C243.06,310.38 241.8,309.06 240.12,307.02 C238.44,304.98 237.24,303.54 236.52,302.7 C235.8,301.86 234.42,300.18 232.38,297.66 C230.748,295.644 229.4616,294.0504 228.5208,292.8792 L227.88,292.08 L211.68,272.28 C216.72,263.64 220.8,253.56 223.92,242.04 C226.32,231.72 230.22,224.82 235.62,221.34 C241.02,217.86 250.08,216.12 262.8,216.12 L262.8,216.12 L262.8,199.56 L185.04,199.56 L185.04,216.12 C198,216.12 204.48,221.4 204.48,231.96 C204.48,240.84 202.8,249.36 199.44,257.52 L199.44,257.52 L146.16,192.36 C185.04,185.16 204.48,166.56 204.48,136.56 C204.48,119.04 197.16,105.18 182.52,94.98 C167.88,84.78 148.8,79.68 125.28,79.68 C100.08,79.68 80.1,85.86 65.34,98.22 C50.58,110.58 43.2,127.08 43.2,147.72 C43.2,166.2 50.28,185.04 64.44,204.24 C24.12,214.32 3.96,236.16 3.96,269.76 C3.96,291.36 12.42,308.4 29.34,320.88 C46.26,333.36 68.04,339.6 94.68,339.6 Z M136.08,179.76 L133.92,176.88 C133.2,176.16 131.4,174.06 128.52,170.58 C125.64,167.1 123.66,164.7 122.58,163.38 C121.5,162.06 119.76,159.78 117.36,156.54 C114.96,153.3 113.22,150.6 112.14,148.44 C111.06,146.28 109.8,143.64 108.36,140.52 C106.92,137.4 105.96,134.28 105.48,131.16 C105,128.04 104.76,124.92 104.76,121.8 C104.76,114.12 106.68,107.88 110.52,103.08 C114.36,98.28 119.76,95.88 126.72,95.88 C135.36,95.88 141.78,99.12 145.98,105.6 C150.18,112.08 152.28,120.36 152.28,130.44 C152.28,152.52 146.88,168.96 136.08,179.76 L136.08,179.76 Z M125.64,309.72 C108.12,309.72 93.9,304.14 82.98,292.98 C72.06,281.82 66.6,267.96 66.6,251.4 C66.6,237.24 69.36,225.72 74.88,216.84 L74.88,216.84 L134.28,291 C138.6,296.52 142.92,301.56 147.24,306.12 C140.28,308.52 133.08,309.72 125.64,309.72 Z" opacity=".244" transform="translate(-3 -79)"/>
</svg>
