<svg xmlns="http://www.w3.org/2000/svg" width="128" height="374" viewBox="0 0 128 374">
  <path fill="#EEE5DF" d="M567.556056,206.701213 L613.673455,-34.8910738 L486.326545,-34.8910738 L532.443944,206.701213 L567.556056,206.701213 Z M549.737969,338.240614 C564.411687,338.240614 576.98916,332.912656 587.470387,322.256742 C597.951614,311.600828 603.192228,298.936012 603.192228,284.262294 C603.192228,268.889827 598.038958,255.788293 587.732418,244.957692 C577.425878,234.12709 564.761062,228.71179 549.737969,228.71179 C535.413626,228.71179 523.01084,234.12709 512.529613,244.957692 C502.048386,255.788293 496.807772,268.889827 496.807772,284.262294 C496.807772,298.936012 502.048386,311.600828 512.529613,322.256742 C523.01084,332.912656 535.413626,338.240614 549.737969,338.240614 Z" transform="translate(-486 35)"/>
</svg>
