<svg xmlns="http://www.w3.org/2000/svg" width="20" height="20" viewBox="0 0 20 20">
  <path fill="#7C7277" d="M9.92884956,0 C15.4124018,0 19.8576991,4.44529736 19.8576991,9.92884956 C19.8576991,15.4124018 15.4124018,19.8576991 9.92884956,19.8576991 C4.44529736,19.8576991 0,15.4124018 0,9.92884956 C0,4.44529736 4.44529736,0 9.92884956,0 Z M10.6771681,3.85185841 C8.47044248,3.85185841 7.96902655,5.50477876 7.96902655,6.56035398 L7.96902655,6.56035398 L7.96902655,8.03646018 L6.69238938,8.03646018 L6.69238938,10.3175221 L7.96902655,10.3175221 L7.96902655,16.8081416 L10.6532743,16.8081416 L10.6532743,10.3175221 L12.4249558,10.3175221 L12.659469,8.03858407 L10.6534513,8.03858407 L10.6534513,6.69610619 C10.6534513,6.19256637 10.9861947,6.07433628 11.2228319,6.07433628 L11.2228319,6.07433628 L12.6654867,6.07433628 L12.6654867,3.86017699 Z"/>
</svg>
