<svg xmlns="http://www.w3.org/2000/svg" xmlns:xlink="http://www.w3.org/1999/xlink" width="190" height="65" viewBox="0 0 190 65">
  <defs>
    <path id="highlighter-2-a" d="M54.6465389,18.5823983 C52.2484909,16.6651448 34.6187779,18.3079408 33.3363086,17.7540895 C32.2894496,16.9948887 33.9333663,3.99271184 34.9034736,2.08335648 C35.2488567,1.40412355 35.6513575,1.27874189 36.5563149,1.63612899 C37.2845647,1.92440808 42.3091311,1.90071391 47.1605597,1.80198819 C52.0110958,1.70227522 56.6840318,1.54530133 56.6840318,1.54530133 C56.9285666,1.95698756 57.6755581,0.615305074 57.81032,1.11189543 C58.0227262,1.69141539 65.6970151,1.82370785 73.6426127,1.84345299 C81.5882103,1.86319813 89.8051167,1.83358042 91.0956181,1.8454275 C92.6618906,1.86023636 91.4061952,2.59574295 93.2562709,2.37262283 C97.192925,1.89775213 105.732903,2.95016827 108.718191,2.38052089 C111.113562,1.92243356 111.619589,1.95205128 113.897154,2.51873689 C116.213095,3.09430782 128.637964,3.16440308 130.086432,2.35781397 C130.441632,2.12778305 130.703124,2.23440683 130.695092,2.52466044 C130.695092,2.52466044 130.830746,2.55230364 131.069926,2.57797232 C131.308214,2.60364101 133.970431,2.87217496 135.063698,2.98472228 C137.251124,3.21080417 139.441228,3.4704528 139.457293,3.58497463 C139.513518,3.87819001 139.773225,4.03318939 140.027577,3.84955955 C140.493442,3.57016578 149.835744,3.11800199 149.955334,3.97592847 C150.297148,6.42037722 148.601468,16.5723427 147.447514,19.0069188 C146.227517,21.5806983 140.325659,18.1845336 135.410866,19.4827768 C109.17067,18.0463176 113.776671,18.1499796 107.937286,19.0424601 C107.405378,18.1440561 105.236694,20.1945892 103.964041,18.6041179 C103.442843,17.9525282 99.5865106,17.679058 98.7199291,18.2891829 C97.9738301,18.7373976 78.2905598,16.6167692 76.2432498,18.3079408 C72.6635809,16.6987116 58.0307584,18.3109025 54.6465389,18.5823983"/>
    <polygon id="highlighter-2-b" points="0 0 44 0 44 30 0 30"/>
    <path id="highlighter-2-d" d="M31.5595908,4.84776918 C32.9396427,6.34417317 38.9874643,2.61765741 39.6191655,3.03049298 C40.1979259,3.64724733 42.9364944,16.4691405 43.0899332,18.4263609 C43.1446687,19.1260823 43.0298139,19.2670261 42.6197465,19.0461141 C42.2832579,18.8242025 40.5110846,19.4339596 38.8241552,20.1146885 C37.1399176,20.7944178 35.5382319,21.5461184 35.5382319,21.5461184 C35.3372361,21.1802641 35.4547827,22.5657123 35.2618626,22.1078946 C34.7961624,21.0013354 24.240291,25.7164574 23.3438854,26.0433272 C22.7803791,26.2482456 23.0181644,25.3675963 22.4268418,25.8613996 C21.1822826,26.9019852 17.8245752,27.1938689 16.9200938,28.2024672 C16.188792,29.0181423 16.0003583,29.0891141 15.016017,28.8622044 C14.0478272,28.7112646 9.47786349,30.4845583 9.13419647,31.4941562 C9.05972033,31.7720455 8.93678983,31.7090706 8.8668002,31.424184 C8.86321099,31.40919 8.64516638,31.4321808 8.31854812,31.4731645 C8.13101182,31.4961554 5.39423794,31.8790029 5.33411864,31.6800821 C5.24887487,31.399194 5.11427943,31.286239 5.05864665,31.502153 C4.96712175,31.8540128 1.49097028,33.6133121 1.26933646,32.7746462 C0.644813635,30.4145861 -0.775616872,20.1566718 -0.893163554,17.6206818 C-1.01788866,14.9197576 1.70722028,17.5197221 3.06125037,15.5635012 C5.74418607,14.9477464 8.41725144,14.2360299 11.0481436,13.4793313 L12.5161311,12.0429034 C12.9531177,12.8275909 13.1101457,10.5155118 14.0101405,11.8759699 C14.3708563,12.4207529 15.7868002,12.1078775 15.9213957,11.3941618 C16.0236882,10.84638 23.5744922,9.97772596 23.8391966,8.07848241 C25.5682993,9.09807632 30.3787402,5.53349606 31.5595908,4.84776918"/>
    <path id="highlighter-2-e" d="M121.096541,5.1256363 C123.074558,6.05390289 133.131032,5.0178376 135.859147,4.80124206 C142.324404,4.28720196 148.66598,3.83205189 149.523743,4.06062506 C150.919833,4.7802812 148.916903,18.0105754 147.739702,19.9749073 C146.944225,21.3024284 146.889058,20.1006725 140.847343,20.4679866 C130.328175,21.1077918 123.916305,22.0290715 119.918452,22.561078 C119.567872,22.1807881 118.733243,23.6360706 118.516133,23.154969 C118.35508,22.8774872 115.814712,22.964325 112.041978,23.3585888 C99.7352093,24.6431899 88.0931187,26.748259 75.8949056,28.9691119 C73.895534,29.3324334 75.3797137,28.3033551 73.0573462,28.9810895 C68.2987173,30.3694969 57.1575818,31.61018 53.3857367,33.0684569 C50.4325038,34.2103246 49.7802833,34.2891774 46.7878995,34.4119481 C43.2269359,34.557676 27.9429104,38.2707424 26.3572939,39.588282 C25.9551062,39.9226576 25.6071959,39.9126763 25.554698,39.6242149 C25.1044612,39.6741217 16.5321667,41.2332104 16.0854891,41.311065 C15.0275217,41.4967183 14.3121258,41.5925394 14.2889911,41.53864 C14.1492931,41.2721377 13.7862563,41.2092551 13.5095298,41.4767556 C12.9747624,41.8700212 1.38605954,45.6799068 1.02569217,44.8933755 C-0.0109201487,42.6355916 -0.389973237,32.1541642 0.493594172,29.351398 C1.42610036,26.3899282 9.89072953,27.517822 15.7802891,24.5783111 C21.5150242,23.330641 25.6570245,22.4313203 30.4387881,21.4421674 C49.3798752,17.5244832 41.6689032,19.7034143 51.2884875,16.3596583 C52.1426917,17.1002753 54.5807327,14.4352519 56.5169287,15.6669518 C57.3141859,16.174005 62.3477618,15.3844793 63.3754761,14.5570245 C63.8159251,14.2036843 70.5294358,13.3133469 77.4342526,12.302235 C84.3399592,11.2911231 91.4565475,10.2380895 92.6862455,9.18904843 C93.9088252,9.38967379 96.0105233,9.26191237 98.5508909,8.97444917 C102.432181,8.53526928 109.80592,7.16383025 121.096541,5.1256363"/>
    <polygon id="highlighter-2-f" points="0 0 189 0 189 59 0 59"/>
    <path id="highlighter-2-h" d="M0.847870951,53.9704745 C-0.92013202,52.9585018 0.41279192,29.8523662 1.79713429,26.2344773 C2.28857583,24.9513787 2.92240688,24.6042686 4.42936243,24.965194 C5.8572127,25.3071234 16.9813925,23.1035786 37.0563345,19.2819136 C37.4914135,19.9398686 38.5830664,17.4168444 38.8460914,18.2492179 C39.3503876,19.4615129 64.8885379,15.2478379 92.9768446,12.4657763 C95.5240345,12.2136466 93.5394809,13.7246981 96.5286716,13.0201163 C102.896646,11.5211533 116.855762,12.0478627 121.674262,10.6766914 C125.541521,9.57664592 126.374104,9.50238853 130.108862,10.2363278 C133.264174,10.8562906 154.100504,9.77869508 156.448942,8.24692063 C157.013556,7.81691855 157.445669,7.98097557 157.448635,8.48868886 C157.832296,8.547404 159.290799,8.62511522 159.678415,8.64756513 C159.906832,8.66138046 171.70835,9.2830702 171.769657,9.66817246 C171.877438,10.1758858 172.304607,10.4193809 172.712988,10.0929938 C173.448667,9.50411545 188.643802,8.26246287 188.87914,9.75624518 C189.551535,14.0182738 187.278247,31.8400465 185.521121,36.1694248 C183.675001,40.7129407 174.078542,35.1056446 166.037491,37.7340107 C124.609068,37.3212777 128.595974,38.1139322 121.511107,39.8736595 C120.589531,38.3729696 117.201847,42.227446 115.048206,39.6647027 C114.154316,38.5991956 107.904011,38.7252604 106.537467,39.8961094 C105.553595,40.7388444 73.6741678,40.4055497 70.1747481,44.0078963 C63.447833,41.7715402 37.8345327,48.8985223 35.3051414,49.4666777 C30.9375412,46.6379894 2.63169498,54.5403568 0.847870951,53.9704745 Z"/>
    <path id="highlighter-2-i" d="M139.784896,20.7158704 C142.754813,22.0934165 166.263345,19.3983482 168.556796,20.1276373 C169.954767,20.8759339 167.707239,34.0951741 166.486773,36.0419458 C165.669892,37.3434617 165.617788,36.1569914 159.522525,36.3960862 C153.393705,36.6361813 148.710544,36.9212944 138.378977,38.1837948 C138.029263,37.7986422 137.169992,39.2492172 136.956278,38.7640248 C136.796434,38.5019209 134.234516,38.5319328 130.421224,38.893076 C115.287275,40.3256439 97.3397213,43.6499616 93.8593635,44.2391952 C91.8334968,44.5823312 93.3453904,43.5719307 90.9910047,44.2341932 C85.9863898,45.6427516 74.8017334,46.7721993 71.0502592,48.1697533 C68.0485499,49.2881967 67.3870965,49.3832344 64.3553614,49.4452589 C61.2653406,49.5092843 45.2385625,52.9976671 43.5624095,54.309187 C43.1464621,54.6343159 42.7949822,54.6173092 42.7481771,54.3271942 C42.4081777,54.3572061 33.5584783,55.721747 33.1019077,55.7877731 C32.0236238,55.943835 31.2950536,56.0188648 31.2729757,55.9648433 C31.1405084,55.6927355 30.7740155,55.6197065 30.4852368,55.8798096 C29.9430039,56.2849702 18.0324266,59.682317 17.6968428,58.8769977 C16.7386626,56.5740848 16.7766365,46.0439106 17.7613102,43.2708114 C18.7998539,40.3456518 27.1514761,41.8172351 33.2608684,39.0101224 C69.6911446,32.084377 60.1932385,34.3812875 69.1595091,31.393103 C70.0099492,32.1424 72.5021009,29.5033539 74.439656,30.7558503 C75.2371092,31.2710546 80.3194383,30.512754 81.3694625,29.6984312 C81.817202,29.352294 88.6012945,28.5129613 95.5832048,27.5455778 C102.563349,26.5781943 109.766038,25.5777977 111.016529,24.5223794 C114.612575,25.1176153 123.73604,23.4209427 139.784896,20.7158704"/>
    <path id="highlighter-2-j" d="M40.5612504,57.5680384 C38.8101035,56.5028487 30.1016493,57.4769044 28.0971527,57.7022895 C22.6572681,58.3147491 17.4270215,59.1898313 16.6803532,58.9634663 C15.4376901,58.3382675 16.1013953,45.3061078 17.0478889,43.2972404 C17.3833097,42.5848274 17.8239957,42.4358773 18.8918117,42.6544028 C19.3164403,42.7700352 20.9605379,42.6357841 23.1871617,42.4437167 C25.3156571,42.2594889 25.2255573,42.2467497 41.7967768,40.5259833 C42.1000829,40.9140377 42.8681611,39.5215496 43.0519289,40.0026979 C43.3828894,40.667094 74.6822977,38.7709192 80.9330801,38.6239289 C82.7136655,38.5827716 81.3139969,39.3588804 83.4077013,39.0570603 C87.8671935,38.4132428 97.6059964,39.1511341 100.983399,38.5131962 C103.697097,37.9997101 104.278731,37.9928505 106.877351,38.5112363 C109.210132,38.9767056 123.623418,38.9286888 125.300522,38.1241619 C125.701957,37.895837 126.001694,38.00069 125.994558,38.2897709 C126.21044,38.3250486 135.946567,39.1178163 135.984926,39.3530008 C136.050048,39.6450215 136.343541,39.7959315 136.636143,39.6205231 C137.155331,39.3089037 147.822786,39.0296221 147.954814,39.8890254 C148.325918,42.3212248 146.327665,52.3675217 145.018097,54.7654234 C144.324953,56.0344396 142.340082,55.7943554 139.817289,55.4014014 C131.746669,54.1451243 135.570111,55.3200668 127.503952,54.9241729 C103.993267,53.7698091 104.993285,54.3587502 100.530224,55.0682234 C99.9066626,54.1882415 97.5150045,56.2804034 96.0412936,54.7536641 C95.4337893,54.1245457 91.0911592,54.0069534 90.1223637,54.6203929 C89.2400997,55.179936 67.3101746,53.7629495 64.8087911,55.7296797 C60.3011268,54.240178 42.9109808,57.2387801 40.5612504,57.5680384"/>
    <path id="highlighter-2-k" d="M163.232102,25.0219528 C165.968024,26.7301139 185.995551,24.4081115 187.865198,25.2151945 C189.1776,26.1287153 187.0978,41.1251636 186.3732,42.7351984 C186.031142,43.4957701 185.617465,43.6250555 184.67403,43.2296813 C184.289114,43.0679006 182.80638,42.9403742 180.772296,42.9657282 C174.848131,43.0385934 171.99644,43.3546598 166.745389,43.8414522 C164.888458,44.0137336 163.667683,44.185481 163.667683,44.185481 C163.342516,43.7484936 162.778039,45.3076277 162.556122,44.7660084 C162.24472,44.1304906 154.154006,44.700574 145.75775,45.7159774 C141.572998,46.2221977 137.302539,46.8443181 133.932121,47.3545364 C130.546994,47.8667707 128.050109,48.2890278 127.369603,48.3916501 C125.715782,48.639441 126.832916,47.6163047 124.943149,48.1899935 C120.943419,49.4051513 111.621923,49.8620341 108.652339,51.0972522 C106.273199,52.0862645 105.738275,52.1543555 103.152908,51.992576 C100.539399,51.8293255 87.3906292,54.3967063 86.1257429,55.6133135 C85.8268788,55.9417025 85.514136,55.8824261 85.4260539,55.5633413 C85.4260539,55.5633413 85.2733775,55.5635577 85.0111579,55.5877361 C83.6652587,55.7103819 84.3890769,55.6469627 80.6433884,56.0187089 C78.256853,56.2558388 75.831049,56.4560263 75.7801025,56.3361359 C75.6211684,56.0282703 75.2930754,55.9158043 75.0844502,56.17251 C74.7008207,56.5825892 64.8545434,59.1334327 64.4448054,58.2184384 C63.2843492,55.6278004 61.8158336,44.1585373 62.2348079,41.2573172 C62.6785068,38.1786845 69.9857969,40.6110462 74.7620814,38.1077789 C103.505194,33.8980067 97.8090782,35.0402564 104.233355,32.709725 C105.081856,33.5796608 106.782392,30.8971784 108.661422,32.3965567 C109.425212,33.0070648 113.668063,32.5446562 114.429887,31.7178033 C114.777139,31.4043967 120.431095,30.8985728 126.275238,30.2782115 C132.103334,29.6598488 138.127193,28.9457885 139.052074,27.8594276 C142.301661,28.8225027 152.220859,26.8996505 163.232102,25.0219528"/>
  </defs>
  <g fill="none" fill-rule="evenodd">
    <use fill="#7068FF" xlink:href="#highlighter-2-a"/>
    <use fill="#A7AAFF" xlink:href="#highlighter-2-a"/>
    <use fill="#D4D2F7" xlink:href="#highlighter-2-a"/>
    <g transform="translate(24)">
      <mask id="highlighter-2-c" fill="#fff">
        <use xlink:href="#highlighter-2-b"/>
      </mask>
      <g mask="url(#highlighter-2-c)">
        <use fill="#7068FF" xlink:href="#highlighter-2-d"/>
        <use fill="#A7AAFF" xlink:href="#highlighter-2-d"/>
        <use fill="#D4D2F7" xlink:href="#highlighter-2-d"/>
      </g>
    </g>
    <use fill="#7068FF" xlink:href="#highlighter-2-e"/>
    <use fill="#A7AAFF" xlink:href="#highlighter-2-e"/>
    <use fill="#D4D2F7" xlink:href="#highlighter-2-e"/>
    <g transform="translate(1)">
      <mask id="highlighter-2-g" fill="#fff">
        <use xlink:href="#highlighter-2-f"/>
      </mask>
      <g mask="url(#highlighter-2-g)">
        <use fill="#7068FF" xlink:href="#highlighter-2-h"/>
        <use fill="#A7AAFF" xlink:href="#highlighter-2-h"/>
        <use fill="#D4D2F7" xlink:href="#highlighter-2-h"/>
      </g>
    </g>
    <use fill="#7068FF" xlink:href="#highlighter-2-i"/>
    <use fill="#A7AAFF" xlink:href="#highlighter-2-i"/>
    <use fill="#D4D2F7" xlink:href="#highlighter-2-i"/>
    <use fill="#7068FF" xlink:href="#highlighter-2-j"/>
    <use fill="#A7AAFF" xlink:href="#highlighter-2-j"/>
    <use fill="#D4D2F7" xlink:href="#highlighter-2-j"/>
    <g transform="rotate(6 125.226 41.719)">
      <use fill="#7068FF" xlink:href="#highlighter-2-k"/>
      <use fill="#A7AAFF" xlink:href="#highlighter-2-k"/>
      <use fill="#D4D2F7" xlink:href="#highlighter-2-k"/>
    </g>
  </g>
</svg>
