<svg xmlns="http://www.w3.org/2000/svg" xmlns:xlink="http://www.w3.org/1999/xlink" width="187" height="58" viewBox="0 0 187 58">
  <defs>
    <polygon id="highlighter-1-a" points="0 0 187 0 187 24 0 24"/>
    <path id="highlighter-1-c" d="M34.7237188,22.1811023 C30.4077654,20.1165204 2.50820997,24.4058966 0.60421595,23.9684371 C-1.09221295,23.2435041 1.16735678,8.0642252 2.66935758,5.72466871 C3.20184533,4.89633617 3.83417453,4.68726459 5.30026744,4.97473802 C6.626232,5.2360775 16.5779726,4.26457638 37.5017634,2.37952334 C37.9055082,2.82948175 39.0633188,1.21031322 39.2927789,1.7682162 C39.6483546,2.40906606 51.9367356,1.77617001 64.6577628,1.21258574 C72.7554301,0.853528013 84.0865592,0.380844428 92.6037357,0.203588084 C95.1120333,0.151320187 93.1248381,1.05691831 96.0789189,0.730812082 C102.371558,0.0365580667 116.072608,1.04555572 120.837848,0.386525721 C124.659849,-0.141834536 125.481351,-0.156605898 129.136074,0.517195462 C132.12869,1.06828089 152.731061,1.55232706 155.052813,0.595597307 C155.615954,0.36266429 156.036339,0.474017635 156.030208,0.809213927 C156.55569,0.892160806 158.25387,1.00124163 163.038378,1.48756032 C163.146101,1.49892291 170.05005,2.20908454 170.086834,2.38179585 C170.186675,2.72267344 170.605309,2.90674734 171.009054,2.71471963 C171.744727,2.36361572 186.684162,2.43633627 186.900485,3.4294263 C187.520553,6.28029917 185.111221,17.8519569 183.322833,20.6062478 C181.461753,23.4730283 172.068774,19.2393287 164.070073,20.5130746 C157.211665,20.0824326 136.904439,19.0291209 133.507203,18.9007236 C126.418459,18.6337029 129.554707,18.4871255 120.066266,19.5711162 C119.189588,18.5382571 115.751188,20.8982663 113.690426,19.1188853 C112.827761,18.3723634 106.662113,18.1871532 105.2836,18.8620908 C104.988455,19.0063957 102.791943,18.9950331 99.6145325,18.9291301 C96.6551968,18.8689084 72.0863172,18.1348853 69.2907565,19.9540354 C63.0602995,18.3007791 40.9208953,21.38913 34.7237188,22.1811023"/>
    <polygon id="highlighter-1-d" points="0 0 178 0 178 22 0 22"/>
    <path id="highlighter-1-f" d="M33.1157614,22 C29.4275671,19.9126617 2.48183598,22.1387084 0.515582602,21.5122832 C-1.0846219,20.669965 1.41727181,5.90534637 2.89406075,3.72851873 C3.41542853,2.95108029 4.0182338,2.83138833 5.4060292,3.19382007 C7.60148291,3.87505749 36.0030139,2.64010492 36.0030139,2.64010492 C36.3816562,3.1009749 37.4982732,1.5584028 37.7098427,2.11771103 C38.3688986,3.41866197 84.3928286,1.79778672 88.3169397,1.73402559 C90.697097,1.69487401 88.8164789,2.58081825 91.6180961,2.22957268 C97.5873794,1.53938632 110.599745,2.26201255 115.116587,1.46220179 C118.734258,0.798862224 119.515051,0.786557443 122.992515,1.33356089 C126.54554,1.82575214 145.423083,1.18814075 147.578238,0.164606691 C148.103804,-0.118403273 148.507633,-0.0154905588 148.510991,0.313382681 C148.510991,0.382736901 161.818043,0.663509633 161.880171,0.920791419 C161.983437,1.24854604 162.387266,1.40627096 162.76339,1.18031044 C163.455189,0.842488266 177.619433,-0.357787196 177.849473,0.605341577 C178.553865,3.34035882 176.647221,14.9639025 175.011755,17.7917649 C173.341866,20.8086735 164.082341,17.3868257 156.65306,19.1900355 L122.049687,19.2593897 L114.635518,20.3690572 C113.785882,19.3813189 110.520827,21.8467495 108.542819,20.0826914 C107.705776,19.3824375 101.815412,19.2582711 100.514091,19.9943207 C99.3840414,20.5625778 69.2303452,19.0278361 66.1449562,20.9932452 C60.6349131,19.3209136 38.2958568,21.6140773 33.1157614,22"/>
    <polygon id="highlighter-1-g" points="0 0 162 0 162 26 0 26"/>
    <path id="highlighter-1-i" d="M30.2621037,26 C26.9675323,23.9134659 2.39851601,26.1246887 0.46455526,25.4406167 C-0.993367098,24.5700835 1.32633378,9.48846827 2.66678073,7.26809394 C3.1436958,6.47649217 3.6977589,6.31977333 4.95316769,6.73387714 C7.00986393,7.41337346 30.2287898,6.32434906 32.7965917,6.18936494 C33.1428811,6.65723362 34.1510655,5.07517401 34.3465656,5.64599667 C34.6498977,6.31062186 45.2700248,6.17106201 56.2592351,5.76267786 C67.2484454,5.35429371 78.6041089,4.67365346 80.388157,4.60044173 C82.5535618,4.51235888 80.8554285,5.4400887 83.4004367,5.03284848 C88.8165788,4.16574712 100.675458,4.613025 104.766057,3.63839392 C108.043094,2.85708755 108.748823,2.84679215 111.927673,3.26661563 C115.169643,3.69444664 132.347353,2.3834992 134.25852,1.17893755 C134.732805,0.879227053 135.098381,0.95701451 135.110655,1.29333087 C135.110655,1.29333087 135.300018,1.30705807 135.631404,1.30591413 C135.963666,1.30591413 144.213245,1.23842208 145.357315,1.24070994 C146.502262,1.24185388 147.271112,1.27845974 147.286892,1.34366393 C147.392094,1.67426062 147.764684,1.81839621 148.0987,1.5701627 C148.718514,1.20867981 161.54788,-0.697112889 161.798612,0.270654594 C162.515738,3.04126079 161.191071,14.9782037 159.818187,17.9661572 C158.371661,21.1142613 149.825764,18.0805505 143.100735,20.2448721 C104.488148,22.0328397 114.22984,21.068504 104.74677,22.9788724 C103.948989,21.9962338 101.038404,24.579235 99.1728247,22.8633352 C98.4022211,22.1540966 93.0106261,22.2009979 91.8349953,22.9880239 C90.7259925,23.6343462 63.1464498,22.6837377 60.4436389,24.682189 C55.3904431,23.0703871 34.9988171,25.606487 30.2621037,26"/>
  </defs>
  <g fill="none" fill-rule="evenodd" transform="rotate(-2 173.199 29.609)">
    <g transform="translate(0 16.218)">
      <mask id="highlighter-1-b" fill="#fff">
        <use xlink:href="#highlighter-1-a"/>
      </mask>
      <g mask="url(#highlighter-1-b)">
        <use fill="#EC84C4" xlink:href="#highlighter-1-c"/>
        <use fill="#E8D5BE" xlink:href="#highlighter-1-c"/>
      </g>
    </g>
    <g transform="translate(8.544 30.367)">
      <mask id="highlighter-1-e" fill="#fff">
        <use xlink:href="#highlighter-1-d"/>
      </mask>
      <g mask="url(#highlighter-1-e)">
        <use fill="#EC84C4" xlink:href="#highlighter-1-f"/>
        <use fill="#E8D5BE" xlink:href="#highlighter-1-f"/>
      </g>
    </g>
    <g transform="translate(6.527)">
      <mask id="highlighter-1-h" fill="#fff">
        <use xlink:href="#highlighter-1-g"/>
      </mask>
      <g mask="url(#highlighter-1-h)">
        <use fill="#EC84C4" xlink:href="#highlighter-1-i"/>
        <use fill="#E8D5BE" xlink:href="#highlighter-1-i"/>
      </g>
    </g>
  </g>
</svg>
