<?xml version="1.0" encoding="utf-8"?>
<!-- Generator: Adobe Illustrator 25.3.1, SVG Export Plug-In . SVG Version: 6.00 Build 0)  -->
<svg version="1.1" id="Layer_1" xmlns="http://www.w3.org/2000/svg" xmlns:xlink="http://www.w3.org/1999/xlink" x="0px" y="0px"
	 viewBox="0 0 187 58" style="enable-background:new 0 0 187 58;" xml:space="preserve">
<style type="text/css">
	.st0{fill-rule:evenodd;clip-rule:evenodd;fill:#E8D5BE;}
</style>
<path class="st0" d="M185.5,30.2c0.9-4.3,1.5-9.3,1-11.1c-0.3-1-15.2-0.5-15.9-0.2c-0.4,0.2-0.8,0-0.9-0.3c0-0.1-2-0.3-3.8-0.4
	c0,0,0-0.1,0.1-0.1c1.3-3,2.2-15,1.4-17.8c-0.3-1-13,1.4-13.6,1.8c-0.3,0.3-0.7,0.1-0.8-0.2c0-0.1-0.8-0.1-1.9,0
	c-1.1,0-9.4,0.4-9.7,0.4c-0.3,0-0.5,0-0.5,0c0-0.3-0.4-0.4-0.9-0.1c-1.9,1.3-19,3.2-22.2,2.9c-3.2-0.3-3.9-0.3-7.1,0.6
	C106.4,6.9,94.5,6.9,89.1,8c-2.5,0.5-0.9-0.5-3-0.3C84.3,7.8,73,8.8,62,9.6s-21.6,1.3-21.9,0.6c-0.2-0.6-1.2,1.1-1.5,0.6
	C36,11.1,12.9,13,10.8,12.4C9.5,12,9,12.2,8.5,13c-0.9,1.6-2,9.1-2.1,14c-0.7,0-1.1,0-1.3,0c-1.5-0.2-2.1,0-2.6,0.8
	c-1.4,2.4-3.1,17.6-1.4,18.3c0.7,0.1,4.4-0.4,9.2-1.1c-0.9,5.1-1.4,12-0.3,12.5c2,0.6,28.8-2.6,32.6-0.7c5.2-0.6,27.4-3.6,33-2.2
	c3-2.1,33.2-1.6,34.3-2.2c1.3-0.8,7.2-0.9,8-0.2c2,1.7,5.2-0.9,6.1,0.1l7.4-1.4l34.6-1.3c7.4-2.1,16.7,1,18.3-2
	c1.5-2.9,3-14.6,2.2-17.3C186.4,30.4,186,30.3,185.5,30.2z"/>
</svg>
