<?xml version="1.0" encoding="utf-8"?>
<!-- Generator: Adobe Illustrator 25.3.1, SVG Export Plug-In . SVG Version: 6.00 Build 0)  -->
<svg version="1.1" id="Layer_1" xmlns="http://www.w3.org/2000/svg" xmlns:xlink="http://www.w3.org/1999/xlink" x="0px" y="0px"
	 viewBox="0 0 190 65" style="enable-background:new 0 0 190 65;" xml:space="preserve">
<style type="text/css">
	.st0{fill-rule:evenodd;clip-rule:evenodd;fill:#D4D2F7;}
</style>
<path class="st0" d="M187.7,31.5c1.4-7,2.7-18.5,2.1-21.8c-0.2-1.5-15.4-0.3-16.2,0.3c-0.4,0.3-0.8,0.1-0.9-0.4
	c-0.1-0.4-11.9-1-12.1-1c-0.4,0-1.8-0.1-2.2-0.2c0-0.5-0.4-0.7-1-0.2c-0.8,0.5-3.9,1-7.6,1.4c0.2-1.6,0.2-3,0.2-4c0-0.7,0-1.2,0-1.6
	c-0.1-0.9-9.5-0.4-9.9-0.1c-0.3,0.2-0.5,0-0.6-0.3c0-0.1-2.2-0.4-4.4-0.6c-1.1-0.1-3.8-0.4-4-0.4c-0.2,0-0.4-0.1-0.4-0.1
	c0-0.3-0.3-0.4-0.6-0.2c-1.4,0.8-13.9,0.7-16.2,0.2c-2.3-0.6-2.8-0.6-5.2-0.1c-3,0.6-11.5-0.5-15.5,0c-1.9,0.2-0.6-0.5-2.2-0.5
	c-1.3,0-9.5,0-17.5,0c-7.9,0-15.6-0.2-15.8-0.7c-0.1-0.5-0.9,0.8-1.1,0.4c0,0-4.7,0.2-9.5,0.3c-4.9,0.1-9.9,0.1-10.6-0.2
	c-0.9-0.4-1.3-0.2-1.7,0.4C34.2,3.4,33.3,9.8,33,14c-2,0.5-4,1.1-6,1.5c-1.4,2-4.1-0.6-4,2.1c0,0.8,0.2,2.5,0.5,4.4
	c-11,2.1-17.1,3.2-18.1,2.9c-1.5-0.4-2.1,0-2.6,1.3c-0.1,0.3-0.3,0.9-0.4,1.6c-1,0.4-1.7,0.8-1.9,1.6C-0.4,32.1,0,42.6,1,44.9
	c-0.1,4.8,0.1,8.7,0.8,9.1c0.8,0.3,7.1-1.2,14.2-2.7c-0.2,3.7,0,7.4,0.6,7.7c0.2,0.1,0.6,0,1.2,0c0.3,0.1,1.3,0,2.6-0.3
	c2.1-0.3,4.8-0.7,7.6-1c2-0.2,10.7-1.2,12.5-0.1c2.3-0.3,19.7-3.3,24.2-1.8c2.5-2,24.4-0.5,25.3-1.1c1-0.6,5.3-0.5,5.9,0.1
	c1.5,1.5,3.9-0.6,4.5,0.3c4.5-0.7,3.5-1.3,27-0.1c8.1,0.4,4.2-0.8,12.3,0.5c2.5,0.4,4.5,0.6,5.2-0.6c0.6-1.1,1.4-4,2-6.9
	c7.8-0.1,14.8,0.2,15,0.8c0.2,0.6,0.9-0.9,1.2-0.5c0,0,1.2,0,3.1,0c5.3,0.1,8.1,0,14,0.6c2,0.2,3.5,0.5,3.9,0.7
	c0.9,0.5,1.3,0.4,1.7-0.3c0.9-1.5,4.5-16.2,3.3-17.3C189,31.7,188.5,31.6,187.7,31.5z"/>
</svg>
