<svg xmlns="http://www.w3.org/2000/svg" viewBox="0 0 1469.9 490"><path d="M572.8 218.1c0-3.6 0-43.1-.9-52.2-.4-4.9-1.8-7.5-9.8-7.5h-8.9c-.9 0-1.3-.4-1.3-1.1v-6c0-1.3.4-1.8 1.3-1.8 2.7 0 10.7.7 34.2.7 20.9 0 28.4-.7 32-.7 1.3 0 1.8.4 1.8 1.6v5.5c0 1.3-.4 1.8-1.8 1.8h-9.3c-6.2 0-8 1.8-8.2 6-.2 3.6-.7 32-.7 59.1v10.2c0 28-.9 49.7-.9 55.1 0 12.9-1.8 23.5-8.9 35.5-10.2 16-27.1 32-48.8 32-4.9 0-16-4-16-14.7 0-7.1 5.3-12.9 12.9-12.9 9.8 0 15.5 7.1 18.6 15.1 4.9-.4 9.8-5.8 12-13.3 4.7-16.2 2.7-80.8 2.7-96.8v-15.6zM671.6 296.5c-4.9 5.3-10.7 9.1-19.3 12-5.1 1.6-9.8 1.6-14.2 1.6-8.2 0-15.3-6.7-15.3-19.1 0-10.2 4.4-20.2 20.4-27.3 13.8-6.7 22.2-10.2 27.1-13.8v-11.5c-.4-4.4-.9-9.8-3.6-12.4-2.2-2.4-6.2-3.3-11.1-3.3-4 0-9.3 1.3-12.9 4-3.1 2.2-.9 5.5-.9 10.9 0 8-4 12.9-13.3 12.9-4 0-7.5-2.7-7.5-7.5 0-6.2 3.6-13.3 10.2-18.2 9.3-7.1 21.3-12.4 36-12.4 12.4 0 16.4 2.7 20.4 6.2 4.9 4.4 5.3 10.7 5.3 16.7l.4 35.1v10.7c0 12 1.8 15.5 5.8 15.5 3.1 0 6.2-1.8 7.1-3.6.9-1.3 1.3-1.3 2.2-.9l2.7 1.8c.9.4 1.3 1.3.4 3.6-2.2 4-7.5 12.9-20.4 12.9-8.4 0-15.5-4-18.6-13.5h-.9zm-1.3-38.4c-9.8 6.2-24.4 10-24.4 26.2 0 9.1 4.9 13.5 10.2 13.5 6.2-.4 14.2-6.7 14.2-10.7v-29zM741.8 213.9c1.8-.9 3.1-1.8 4.4-1.8s2.2.9 2.7 2.7l1.8 11.5h1.3c2.7-3.1 6.7-6.7 11.1-8.9 5.3-3.1 11.1-5.3 17.8-5.3 7.5 0 14.7 1.3 19.5 5.3 9.8 7.1 12.2 13.8 12.2 22.9v32c0 7.1-.2 16.9-.2 21.3 0 4.9 2.7 6.2 5.3 6.2h6.2c2 0 2.7.4 2.7 1.6v5.1c0 1.1-.4 1.6-1.8 1.6-1.8 0-8.4-.7-24-.7-13.3 0-20.4.7-21.8.7s-1.8-.9-1.8-2.7v-3.8c0-1.3.4-1.8 2.7-1.8h4.4c1.8 0 3.6-1.3 4-5.3.7-5.8.9-12 .9-20.9v-25.5c0-8.9-.4-14.7-5.8-19.1-4.4-4-8.4-4-13.3-4-3.6 0-8.9.9-14.2 5.8-3.6 3.6-4.7 9.8-4.7 15.8v45.7c0 4.9 1.1 7.5 4.2 7.5h4c1.8 0 2.2.4 2.2 2v4c0 1.3-.4 2.2-1.8 2.2s-7.5-.7-20.9-.7c-13.8 0-20.9.7-22.2.7-.9 0-1.3-.9-1.3-2.2v-4.2c0-1.3.4-1.8 2.2-1.8h4.4c2.7 0 5.8-.9 5.8-4.4v-50c0-6.7-4-10.2-9.3-12.9l-1.8-.9c-1.3-.4-1.8-1.3-1.8-2.2v-1.8c0-.9.9-1.8 2.2-2.2l24.7-11.5zM851.1 258.1c0 22.6 16.2 36 28.9 36 13.8 0 22.2-5.8 26.9-12.9.9-1.6 1.8-1.6 2.7-1.1l3.3 2c1.1.7 1.6 1.6 0 4.4-4.7 8.4-16 23.5-40.4 23.5-14.2 0-24.2-3.1-32-12-10.2-11.8-12.4-22.9-12.4-36.6 0-12.2 1.3-20.4 10.9-32.9 9.3-12 19.3-16.4 38.6-16.4 25.3 0 33.5 26.4 33.5 35.5 0 3.3-2.2 3.6-6.2 3.6h-53.7v6.9zm27.5-14.9c4.7 0 7.3-1.3 7.3-3.1 0-6.7-2.2-19.8-13.8-19.8-10.9 0-17.5 8-20.4 22.9h26.9zM982.9 203.9c0-14.7 0-38.2-.2-40.6-.4-3.8-2.9-4.9-7.8-4.9h-11.5c-.9 0-1.3-.4-1.3-1.6v-5.6c0-1.3.4-1.8 1.3-1.8 2.7 0 10.7.7 32.9.7 4 0 16.9-.7 24.4-.7 26.6 0 39.5 2.4 52.4 11.3 10.2 7.5 16.9 20 16.9 33.7 0 27.5-21.3 44.8-59.1 44.8-7.5 0-14.2 0-20-.9v9.8c0 10.7 0 40.8.2 43.7.7 4.9 2.9 7.1 6.9 7.1h12.4c1.8 0 1.8.9 1.8 1.6v5.1c0 1.3 0 2.2-1.8 2.2-3.1 0-10.2-.7-34.2-.7-19.5 0-28.4.7-30.6.7-1.8 0-1.8-.9-1.8-1.6v-5.6c0-1.3 0-1.8 1.3-1.8h7.1c7.5 0 9.3-.9 10-6.9.2-2.2.7-36.9.7-62.6v-25.4zm27.9 26.7c4 1.3 10.2 1.8 16 1.8 9.8 0 21.3-7.5 26.6-15.1 4.4-6.7 5.3-15.1 5.3-23.1 0-30.2-24.4-37.1-35.1-37.1-4 0-9.3-.2-12.9 1.6v71.9zM1137.5 296.5c-4.9 5.3-10.7 9.1-19.3 12-5.1 1.6-9.8 1.6-14.2 1.6-8.2 0-15.3-6.7-15.3-19.1 0-10.2 4.4-20.2 20.4-27.3 13.8-6.7 22.2-10.2 27.1-13.8v-11.5c-.4-4.4-.9-9.8-3.6-12.4-2.2-2.4-6.2-3.3-11.1-3.3-4 0-9.3 1.3-12.9 4-3.1 2.2-.9 5.5-.9 10.9 0 8-4 12.9-13.3 12.9-4 0-7.5-2.7-7.5-7.5 0-6.2 3.6-13.3 10.2-18.2 9.3-7.1 21.3-12.4 36-12.4 12.4 0 16.4 2.7 20.4 6.2 4.9 4.4 5.3 10.7 5.3 16.7l.4 35.1v10.7c0 12 1.8 15.5 5.8 15.5 3.1 0 6.2-1.8 7.1-3.6.9-1.3 1.3-1.3 2.2-.9l2.7 1.8c.9.4 1.3 1.3.4 3.6-2.2 4-7.5 12.9-20.4 12.9-8.4 0-15.5-4-18.6-13.5h-.9zm-1.4-38.4c-9.8 6.2-24.4 10-24.4 26.2 0 9.1 4.9 13.5 10.2 13.5 6.2-.4 14.2-6.7 14.2-10.7v-29zM1196.8 250.3c0-10.2-1.8-13.8-8.4-17.3l-4-2.2c-1.3-.4-1.8-.9-1.8-1.8v-1.3c0-.9.4-1.3 1.8-2l26.9-12.7c1.3-.4 2.2-.9 3.6-.9s1.8 1.3 2 2.7l2 16.4h.9c7.5-12.4 16.9-20 26.6-20 7.1 0 11.5 4.9 11.5 11.1 0 6.2-6.2 12-12 12-3.1 0-5.8-.9-7.5-1.8-1.8-1.3-4-1.8-6.2-1.8-2.7 0-6.7 1.8-9.3 6.4-1.8 3.1-2.7 8-2.7 10.9v42.4c0 7.1 1.8 9.3 6.2 9.3h9.8c1.3 0 1.8.4 1.8 1.6v5.1c0 1.1-.4 1.6-1.6 1.6-1.6 0-11.3-.7-27.5-.7-15.5 0-24.2.7-26 .7-1.1 0-1.6-.4-1.6-1.6v-4.9c0-1.3.4-1.8 2-1.8h7.8c3.6 0 5.8-1.8 5.8-6v-43.4zM1277.4 250.3c0-10.2-1.8-13.8-8.4-17.3l-4-2.2c-1.3-.4-1.8-.9-1.8-1.8v-1.3c0-.9.4-1.3 1.8-2l26.9-12.7c1.3-.4 2.2-.9 3.6-.9s1.8 1.3 2 2.7l2 16.4h.9c7.5-12.4 16.9-20 26.6-20 7.1 0 11.5 4.9 11.5 11.1 0 6.2-6.2 12-12 12-3.1 0-5.8-.9-7.5-1.8-1.8-1.3-4-1.8-6.2-1.8-2.7 0-6.7 1.8-9.3 6.4-1.8 3.1-2.7 8-2.7 10.9v42.4c0 7.1 1.8 9.3 6.2 9.3h9.8c1.3 0 1.8.4 1.8 1.6v5.1c0 1.1-.4 1.6-1.6 1.6-1.6 0-11.3-.7-27.5-.7-15.5 0-24.2.7-26 .7-1.1 0-1.6-.4-1.6-1.6v-4.9c0-1.3.4-1.8 2-1.8h7.8c3.6 0 5.8-1.8 5.8-6v-43.4zM1358.9 244.1c0-6.7-1.3-11.1-11.5-13.8-2-.4-2.2-1.1-2.2-2v-2.4c0-.9.4-1.3 1.6-1.8 3.1-1.3 25.1-9.1 28.9-10.7 2.2-.9 4-1.3 5.3-1.3s2 .9 1.8 2.7c-.4 3.6-.4 17.8-.4 36.2v24c0 8.4 0 16.4.4 19.1.4 4 1.3 5.8 3.6 5.8h8.9c1.8 0 2.2.4 2.2 1.6v4.4c0 1.3-.4 2.2-1.8 2.2-1.8 0-12-.7-26.9-.7-12.9 0-21.3.7-24 .7-1.1 0-1.8-.4-1.8-2.2v-4.2c0-1.3.9-1.8 2.2-1.8h9.8c2.2 0 3.3-.9 3.6-4.4.2-6.7.4-13.8.4-20v-31.4zm7.5-54.4c-7.1 0-14.2-5.5-14.2-13.3 0-6.7 6.4-13.8 15.5-13.8 9.3 0 13.8 7.5 13.8 12.9 0 6.7-4.7 14.2-15.1 14.2zM1403.5 279.4c-.2-.9 0-1.6.7-1.8l4.2-1.3c.9-.2 1.6-.2 2 .7l7.3 12.4c4 6.7 8.2 12 19.1 12 8.7 0 15.8-5.3 15.8-13.5 0-8.9-5.8-12.9-21.3-17.3-15.1-4.4-27.1-12-27.1-27.8 0-9.8 3.6-17.8 11.3-23.3 7.8-5.3 14-7.3 23.1-7.3 10.9 0 17.5 2.7 21.5 4.9 3.3 1.8 4 2.7 4.2 4l2.9 15.1c.2.9.2 2-.2 2.4l-4.2 2c-.7.2-1.3 0-1.8-.9l-10.7-12c-2.7-2.9-6.7-6.9-14-6.9-8.2 0-15.3 4.9-15.3 12.7 0 9.1 6.7 11.8 20 15.3 10.2 2.7 16.4 5.3 22.2 11.5 4.9 4.9 6.7 10.2 6.7 17.8 0 18.6-15.1 32-37.1 32-11.8 0-21.5-3.8-24-5.8-.9-.9-1.6-1.6-1.8-2.4l-3.5-22.5z"/><g><path d="M156.2 457c47.2-45.2 43.9-93.7 43.9-93.7s-1 15.3-26 30.8c-9.9 6.1-20.3 9.6-31.1 10.5-11.2-38-33.9-57-68.1-57-10.4-.1-20.2 1.7-29.3 5.5-9.2 3.8-17.2 9.1-24 15.7-6.8 6.6-12.2 14.3-16.1 23.1C1.6 400.7-.3 410 0 419.7c0 20.3 7.3 37.2 21.8 50.6C36.3 483.4 54.9 490 77.5 490c28.7 0 55.3-10.6 78.7-33zM294.2 247.3l-18.5 61.3-24.6 96h-23.8V40.8l97.3.5c63.6 0 115.2 46.1 115.2 102.9 0 47.5-36.1 87.5-85.1 99.4 6.6-4.1 12.4-9.2 17.3-15.2 5.5-6.9 9.7-14.7 12.4-23.5 2.8-8.8 3.6-18 2.6-27.5-2.9-31.5-22.3-50.8-58.3-57.9-.1-10 2.2-19.9 7-29.6 12.1-24.3 26.2-26.6 26.2-26.6s-44.9 1.1-82.7 48.5c-18.7 23.5-26.2 48.9-23.8 75.4 1.9 20.8 9.6 37.4 23 49.6 4.9 4.4 10.2 7.9 15.8 10.5zM200.1 92v244.6h-40.8L87.5 110c-3.3-11.3-5.6-19.9-7-25.9-1.4-5.9-2.4-10.5-2.9-13.8-2.9-19.3.1-35 8.9-47.1C95.4 11 109.3 3.6 128.3.9c19-2.7 34.6.7 46.8 10.2 12.2 9.5 19.8 24.3 22.8 44.4.7 4.8 1.3 10.3 1.7 16.5.2 6.2.5 12.9.5 20z"/></g></svg>