<svg version="1.1" id="Layer_1" xmlns="http://www.w3.org/2000/svg" x="0" y="0" viewBox="0 0 381.4 425" xml:space="preserve"><style>.st0{fill:#fff}</style><path class="st0" d="M135.5 396.3c40.9-39.2 38.1-81.3 38.1-81.3s-.9 13.3-22.6 26.7c-8.6 5.3-17.6 8.3-27 9.1-9.7-32.9-29.4-49.4-59-49.4-9-.1-17.5 1.5-25.4 4.8-8 3.3-14.9 7.9-20.8 13.6-5.9 5.7-10.6 12.4-14 20.1-3.4 7.6-5 15.7-4.7 24.1 0 17.6 6.3 32.3 18.9 43.8C31.5 419.3 47.6 425 67.2 425c24.9 0 48-9.2 68.3-28.7zM255.1 214.5l-16 53.1-21.3 83.3h-20.6V35.4l84.4.4c55.2 0 99.9 40 99.9 89.3 0 41.2-31.3 75.9-73.8 86.2 5.8-3.6 10.7-8 15-13.2 4.8-5.9 8.4-12.7 10.8-20.3 2.4-7.6 3.2-15.6 2.3-23.9-2.5-27.3-19.4-44-50.6-50.2-.1-8.7 1.9-17.3 6.1-25.7C301.8 56.9 314 54.9 314 54.9s-39 1-71.7 42c-16.2 20.4-22.8 42.4-20.6 65.4 1.7 18.1 8.3 32.4 20 43.1 4 3.8 8.6 6.8 13.4 9.1zM173.5 79.8v212.1h-35.4L75.9 95.4C73.1 85.6 71 78.1 69.8 73c-1.2-5.2-2-9.1-2.5-12-2.5-16.7.1-30.4 7.7-40.9C82.6 9.6 94.7 3.1 111.2.8c16.5-2.3 30 .6 40.5 8.9 10.6 8.3 17.1 21.1 19.7 38.5.6 4.1 1.1 8.9 1.5 14.3.4 5.3.6 11.1.6 17.3z"/></svg>