<svg xmlns="http://www.w3.org/2000/svg" viewBox="0 0 1474.8 500"><path d="M579.3 223.1c0-3.6 0-43.1-.9-52.2-.4-4.9-1.8-7.5-9.8-7.5h-8.9c-.9 0-1.3-.4-1.3-1.1v-6c0-1.3.4-1.8 1.3-1.8 2.7 0 10.7.7 34.2.7 20.9 0 28.4-.7 32-.7 1.3 0 1.8.4 1.8 1.6v5.5c0 1.3-.4 1.8-1.8 1.8h-9.3c-6.2 0-8 1.8-8.2 6-.2 3.6-.7 32-.7 59.1v10.2c0 28-.9 49.7-.9 55.1 0 12.9-1.8 23.5-8.9 35.5-10.2 16-27.1 32-48.8 32-4.9 0-16-4-16-14.7 0-7.1 5.3-12.9 12.9-12.9 9.8 0 15.5 7.1 18.6 15.1 4.9-.4 9.8-5.8 12-13.3 4.7-16.2 2.7-80.8 2.7-96.8v-15.6zM677 301.5c-4.9 5.3-10.7 9.1-19.3 12-5.1 1.6-9.8 1.6-14.2 1.6-8.2 0-15.3-6.7-15.3-19.1 0-10.2 4.4-20.2 20.4-27.3 13.8-6.7 22.2-10.2 27.1-13.8v-11.5c-.4-4.4-.9-9.8-3.6-12.4-2.2-2.4-6.2-3.3-11.1-3.3-4 0-9.3 1.3-12.9 4-3.1 2.2-.9 5.5-.9 10.9 0 8-4 12.9-13.3 12.9-4 0-7.5-2.7-7.5-7.5 0-6.2 3.6-13.3 10.2-18.2 9.3-7.1 21.3-12.4 36-12.4 12.4 0 16.4 2.7 20.4 6.2 4.9 4.4 5.3 10.7 5.3 16.7l.4 35.1v10.7c0 12 1.8 15.5 5.8 15.5 3.1 0 6.2-1.8 7.1-3.6.9-1.3 1.3-1.3 2.2-.9l2.7 1.8c.9.4 1.3 1.3.4 3.6-2.2 4-7.5 12.9-20.4 12.9-8.4 0-15.5-4-18.6-13.5h-.9zm-1.4-38.4c-9.8 6.2-24.4 10-24.4 26.2 0 9.1 4.9 13.5 10.2 13.5 6.2-.4 14.2-6.7 14.2-10.7v-29zM747.4 218.9c1.8-.9 3.1-1.8 4.4-1.8s2.2.9 2.7 2.7l1.8 11.5h1.3c2.7-3.1 6.7-6.7 11.1-8.9 5.3-3.1 11.1-5.3 17.8-5.3 7.5 0 14.7 1.3 19.5 5.3 9.8 7.1 12.2 13.8 12.2 22.9v32c0 7.1-.2 16.9-.2 21.3 0 4.9 2.7 6.2 5.3 6.2h6.2c2 0 2.7.4 2.7 1.6v5.1c0 1.1-.4 1.6-1.8 1.6-1.8 0-8.4-.7-24-.7-13.3 0-20.4.7-21.8.7s-1.8-.9-1.8-2.7v-3.8c0-1.3.4-1.8 2.7-1.8h4.4c1.8 0 3.6-1.3 4-5.3.7-5.8.9-12 .9-20.9v-25.5c0-8.9-.4-14.7-5.8-19.1-4.4-4-8.4-4-13.3-4-3.6 0-8.9.9-14.2 5.8-3.6 3.6-4.7 9.8-4.7 15.8v45.7c0 4.9 1.1 7.5 4.2 7.5h4c1.8 0 2.2.4 2.2 2v4c0 1.3-.4 2.2-1.8 2.2s-7.5-.7-20.9-.7c-13.8 0-20.9.7-22.2.7-.9 0-1.3-.9-1.3-2.2v-4.2c0-1.3.4-1.8 2.2-1.8h4.4c2.7 0 5.8-.9 5.8-4.4v-50c0-6.7-4-10.2-9.3-12.9l-1.8-.9c-1.3-.4-1.8-1.3-1.8-2.2v-1.8c0-.9.9-1.8 2.2-2.2l24.7-11.5zM855 263.1c0 22.6 16.2 36 28.9 36 13.8 0 22.2-5.8 26.9-12.9.9-1.6 1.8-1.6 2.7-1.1l3.3 2c1.1.7 1.6 1.6 0 4.4-4.7 8.4-16 23.5-40.4 23.5-14.2 0-24.2-3.1-32-12-10.2-11.8-12.4-22.9-12.4-36.6 0-12.2 1.3-20.4 10.9-32.9 9.3-12 19.3-16.4 38.6-16.4 25.3 0 33.5 26.4 33.5 35.5 0 3.3-2.2 3.6-6.2 3.6H855v6.9zm27.6-14.9c4.7 0 7.3-1.3 7.3-3.1 0-6.7-2.2-19.8-13.8-19.8-10.9 0-17.5 8-20.4 22.9h26.9zM987.3 208.9c0-14.7 0-38.2-.2-40.6-.4-3.8-2.9-4.9-7.8-4.9h-11.5c-.9 0-1.3-.4-1.3-1.6v-5.6c0-1.3.4-1.8 1.3-1.8 2.7 0 10.7.7 32.9.7 4 0 16.9-.7 24.4-.7 26.6 0 39.5 2.4 52.4 11.3 10.2 7.5 16.9 20 16.9 33.7 0 27.5-21.3 44.8-59.1 44.8-7.5 0-14.2 0-20-.9v9.8c0 10.7 0 40.8.2 43.7.7 4.9 2.9 7.1 6.9 7.1h12.4c1.8 0 1.8.9 1.8 1.6v5.1c0 1.3 0 2.2-1.8 2.2-3.1 0-10.2-.7-34.2-.7-19.5 0-28.4.7-30.6.7-1.8 0-1.8-.9-1.8-1.6v-5.6c0-1.3 0-1.8 1.3-1.8h7.1c7.5 0 9.3-.9 10-6.9.2-2.2.7-36.9.7-62.6v-25.4zm28 26.6c4 1.3 10.2 1.8 16 1.8 9.8 0 21.3-7.5 26.6-15.1 4.4-6.7 5.3-15.1 5.3-23.1 0-30.2-24.4-37.1-35.1-37.1-4 0-9.3-.2-12.9 1.6v71.9zM1142.7 301.5c-4.9 5.3-10.7 9.1-19.3 12-5.1 1.6-9.8 1.6-14.2 1.6-8.2 0-15.3-6.7-15.3-19.1 0-10.2 4.4-20.2 20.4-27.3 13.8-6.7 22.2-10.2 27.1-13.8v-11.5c-.4-4.4-.9-9.8-3.6-12.4-2.2-2.4-6.2-3.3-11.1-3.3-4 0-9.3 1.3-12.9 4-3.1 2.2-.9 5.5-.9 10.9 0 8-4 12.9-13.3 12.9-4 0-7.5-2.7-7.5-7.5 0-6.2 3.6-13.3 10.2-18.2 9.3-7.1 21.3-12.4 36-12.4 12.4 0 16.4 2.7 20.4 6.2 4.9 4.4 5.3 10.7 5.3 16.7l.4 35.1v10.7c0 12 1.8 15.5 5.8 15.5 3.1 0 6.2-1.8 7.1-3.6.9-1.3 1.3-1.3 2.2-.9l2.7 1.8c.9.4 1.3 1.3.4 3.6-2.2 4-7.5 12.9-20.4 12.9-8.4 0-15.5-4-18.6-13.5h-.9zm-1.3-38.4c-9.8 6.2-24.4 10-24.4 26.2 0 9.1 4.9 13.5 10.2 13.5 6.2-.4 14.2-6.7 14.2-10.7v-29zM1201.5 255.3c0-10.2-1.8-13.8-8.4-17.3l-4-2.2c-1.3-.4-1.8-.9-1.8-1.8v-1.3c0-.9.4-1.3 1.8-2L1216 218c1.3-.4 2.2-.9 3.6-.9s1.8 1.3 2 2.7l2 16.4h.9c7.5-12.4 16.9-20 26.6-20 7.1 0 11.5 4.9 11.5 11.1 0 6.2-6.2 12-12 12-3.1 0-5.8-.9-7.5-1.8-1.8-1.3-4-1.8-6.2-1.8-2.7 0-6.7 1.8-9.3 6.4-1.8 3.1-2.7 8-2.7 10.9v42.4c0 7.1 1.8 9.3 6.2 9.3h9.8c1.3 0 1.8.4 1.8 1.6v5.1c0 1.1-.4 1.6-1.6 1.6-1.6 0-11.3-.7-27.5-.7-15.5 0-24.2.7-26 .7-1.1 0-1.6-.4-1.6-1.6v-4.9c0-1.3.4-1.8 2-1.8h7.8c3.6 0 5.8-1.8 5.8-6v-43.4zM1282.1 255.3c0-10.2-1.8-13.8-8.4-17.3l-4-2.2c-1.3-.4-1.8-.9-1.8-1.8v-1.3c0-.9.4-1.3 1.8-2l26.9-12.7c1.3-.4 2.2-.9 3.6-.9s1.8 1.3 2 2.7l2 16.4h.9c7.5-12.4 16.9-20 26.6-20 7.1 0 11.5 4.9 11.5 11.1 0 6.2-6.2 12-12 12-3.1 0-5.8-.9-7.5-1.8-1.8-1.3-4-1.8-6.2-1.8-2.7 0-6.7 1.8-9.3 6.4-1.8 3.1-2.7 8-2.7 10.9v42.4c0 7.1 1.8 9.3 6.2 9.3h9.8c1.3 0 1.8.4 1.8 1.6v5.1c0 1.1-.4 1.6-1.6 1.6-1.6 0-11.3-.7-27.5-.7-15.5 0-24.2.7-26 .7-1.1 0-1.6-.4-1.6-1.6v-4.9c0-1.3.4-1.8 2-1.8h7.8c3.6 0 5.8-1.8 5.8-6v-43.4zM1363.5 249.1c0-6.7-1.3-11.1-11.5-13.8-2-.4-2.2-1.1-2.2-2v-2.4c0-.9.4-1.3 1.6-1.8 3.1-1.3 25.1-9.1 28.9-10.7 2.2-.9 4-1.3 5.3-1.3s2 .9 1.8 2.7c-.4 3.6-.4 17.8-.4 36.2v24c0 8.4 0 16.4.4 19.1.4 4 1.3 5.8 3.6 5.8h8.9c1.8 0 2.2.4 2.2 1.6v4.4c0 1.3-.4 2.2-1.8 2.2-1.8 0-12-.7-26.9-.7-12.9 0-21.3.7-24 .7-1.1 0-1.8-.4-1.8-2.2v-4.2c0-1.3.9-1.8 2.2-1.8h9.8c2.2 0 3.3-.9 3.6-4.4.2-6.7.4-13.8.4-20v-31.4zm7.6-54.4c-7.1 0-14.2-5.5-14.2-13.3 0-6.7 6.4-13.8 15.5-13.8 9.3 0 13.8 7.5 13.8 12.9 0 6.6-4.7 14.2-15.1 14.2zM1408.4 284.4c-.2-.9 0-1.6.7-1.8l4.2-1.3c.9-.2 1.6-.2 2 .7l7.3 12.4c4 6.7 8.2 12 19.1 12 8.7 0 15.8-5.3 15.8-13.5 0-8.9-5.8-12.9-21.3-17.3-15.1-4.4-27.1-12-27.1-27.8 0-9.8 3.6-17.8 11.3-23.3 7.8-5.3 14-7.3 23.1-7.3 10.9 0 17.5 2.7 21.5 4.9 3.3 1.8 4 2.7 4.2 4l2.9 15.1c.2.9.2 2-.2 2.4l-4.2 2c-.7.2-1.3 0-1.8-.9l-10.7-12c-2.7-2.9-6.7-6.9-14-6.9-8.2 0-15.3 4.9-15.3 12.7 0 9.1 6.7 11.8 20 15.3 10.2 2.7 16.4 5.3 22.2 11.5 4.9 4.9 6.7 10.2 6.7 17.8 0 18.6-15.1 32-37.1 32-11.8 0-21.5-3.8-24-5.8-.9-.9-1.6-1.6-1.8-2.4l-3.5-22.5z"/><g><path d="M159.4 466.3c48.2-46.2 44.8-95.6 44.8-95.6s-1.1 15.6-26.6 31.4c-10.1 6.3-20.8 9.8-31.8 10.7-11.5-38.7-34.6-58.1-69.4-58.1-10.6-.1-20.6 1.7-29.9 5.7-9.4 3.9-17.5 9.3-24.5 16C15 383.1 9.6 391 5.6 400c-4 9-5.8 18.4-5.6 28.3 0 20.8 7.4 37.9 22.2 51.6C37 493.3 56 500 79 500c29.4 0 56.5-10.9 80.4-33.7zM300.1 252.4l-18.9 62.5-25.1 97.9h-24.3V41.6l99.2.5c64.9 0 117.6 47.1 117.6 105 0 48.5-36.8 89.3-86.8 101.4 6.8-4.2 12.6-9.4 17.6-15.5 5.6-7 9.8-15 12.7-23.9 2.8-9 3.7-18.3 2.7-28.1-3-32.1-22.8-51.8-59.5-59.1-.1-10.2 2.2-20.3 7.1-30.2 12.4-24.8 26.7-27.1 26.7-27.1s-45.9 1.1-84.3 49.5C265.7 138 258 164 260.5 191c2 21.3 9.8 38.2 23.5 50.6 5.1 4.5 10.4 8.1 16.1 10.8zM204.1 93.9v249.6h-41.6L89.3 112.2c-3.3-11.5-5.7-20.3-7.2-26.4-1.4-6.1-2.4-10.8-2.9-14.1-2.9-19.7.1-35.7 9.1-48.1 9-12.4 23.2-20 42.5-22.7 19.4-2.8 35.3.7 47.7 10.4 12.4 9.7 20.2 24.8 23.2 45.3.7 4.9 1.3 10.5 1.7 16.8.5 6.4.7 13.2.7 20.5z"/></g></svg>