<svg xmlns="http://www.w3.org/2000/svg" width="381" height="235" viewBox="0 0 381 235">
  <path fill="#FFF" d="M366.797601,297 C405.021489,290.820185 437.069465,273.616915 462.941529,245.390192 C488.98051,217.33049 502,186.431414 502,152.692964 C502,126.303483 494.238381,104.590618 478.715142,87.554371 C463.358821,70.5181237 443.662669,62 419.626687,62 C396.091454,62 376.061469,70.4346127 359.536732,87.303838 C343.178911,104.173063 335,124.967306 335,149.686567 C335,189.604833 357.1999,216.244847 401.5997,229.60661 C401.098951,236.454513 399.721889,243.051883 397.468516,249.398721 C395.215142,255.745558 392.377561,261.716596 388.955772,267.311834 C385.533983,272.907072 381.527986,277.959488 376.937781,282.469083 C372.347576,286.978678 367.381809,290.736674 362.04048,293.74307 L362.04048,293.74307 L366.797601,297 Z M152.797601,297 C191.021489,290.820185 223.069465,273.616915 248.941529,245.390192 C274.98051,217.33049 288,186.431414 288,152.692964 C288,126.303483 280.238381,104.590618 264.715142,87.554371 C249.358821,70.5181237 229.662669,62 205.626687,62 C182.091454,62 162.061469,70.4346127 145.536732,87.303838 C129.178911,104.173063 121,124.967306 121,149.686567 C121,189.604833 143.1999,216.244847 187.5997,229.60661 C187.098951,236.454513 185.721889,243.051883 183.468516,249.398721 C181.215142,255.745558 178.377561,261.716596 174.955772,267.311834 C171.533983,272.907072 167.527986,277.959488 162.937781,282.469083 C158.347576,286.978678 153.381809,290.736674 148.04048,293.74307 L148.04048,293.74307 L152.797601,297 Z" opacity=".06" transform="translate(-121 -62)"/>
</svg>
